<?xml version="1.0" encoding="UTF-8"?>
<svg version="1.1" xmlns="http://www.w3.org/2000/svg" width="150" height="150">
<path d="M0 0 C0.66 0.66 1.32 1.32 2 2 C5.64044222 1.60443412 8.8079375 0.35781536 12.1875 -1 C18.96944408 -3.47942042 25.45462704 -5.53424485 32.3125 -2.375 C36.52998353 0.14696995 40.20099332 2.46493167 41.74609375 7.3671875 C42.66333028 11.63075595 43.08570856 15.63665493 43 20 C42.34 20 41.68 20 41 20 C40.773125 20.721875 40.54625 21.44375 40.3125 22.1875 C38.75168987 25.53209313 36.6968713 27.51603959 34 30 C35.98 30.66 37.96 31.32 40 32 C40.0989211 36.21746325 40.17149012 40.43431121 40.21972656 44.65258789 C40.23983525 46.08727786 40.26712673 47.52188593 40.30175781 48.95629883 C40.3503146 51.01924839 40.37297406 53.08111431 40.390625 55.14453125 C40.4220459 57.00621948 40.4220459 57.00621948 40.45410156 58.90551758 C40 62 40 62 37.97558594 63.9284668 C37.32364258 64.28207275 36.67169922 64.63567871 36 65 C37.98 65.99 37.98 65.99 40 67 C40.12368591 70.93245085 40.21437336 74.86414798 40.2746582 78.7980957 C40.31214374 80.79353555 40.37567535 82.78843052 40.43945312 84.78320312 C40.45556641 86.03681641 40.47167969 87.29042969 40.48828125 88.58203125 C40.51446533 89.73936768 40.54064941 90.8967041 40.56762695 92.08911133 C40 95 40 95 37.63745117 96.82299805 C36.33191284 97.40561401 36.33191284 97.40561401 35 98 C34.113125 98.4125 33.22625 98.825 32.3125 99.25 C23.18105173 101.31749772 13.87126161 97.72518748 5.2109375 94.99609375 C-5.29080987 91.90473431 -13.56047545 93.88134623 -23.8125 97.0625 C-25.62960742 97.6221025 -27.44857515 98.17570725 -29.26953125 98.72265625 C-30.05948486 98.96765869 -30.84943848 99.21266113 -31.66333008 99.46508789 C-34 100 -34 100 -39 100 C-39 90.43 -39 80.86 -39 71 C-36.35569723 69.94227889 -33.70185122 68.90061707 -31 68 C-34.96 67.505 -34.96 67.505 -39 67 C-39.0740719 62.62178091 -39.12856375 58.24389218 -39.16479492 53.86523438 C-39.179896 52.37526091 -39.20037858 50.88533199 -39.22631836 49.39550781 C-39.26264584 47.2557477 -39.27971221 45.11657434 -39.29296875 42.9765625 C-39.3086792 41.68830566 -39.32438965 40.40004883 -39.34057617 39.07275391 C-39.22818604 38.05874512 -39.1157959 37.04473633 -39 36 C-38.01 35.34 -37.02 34.68 -36 34 C-37.23786688 31.42111067 -38.57263484 29.10736333 -40.125 26.6875 C-42.22730397 22.9946889 -42.53472104 20.27776829 -42 16 C-39.95870224 10.08023651 -37.52940286 5.46473917 -32.01171875 2.26953125 C-11.01061126 -6.93541951 -11.01061126 -6.93541951 0 0 Z M-33 8 C-33 8.66 -33 9.32 -33 10 C-33.66 10 -34.32 10 -35 10 C-37.03937984 14.7985408 -37.62139205 19.01110139 -36 24 C-34.0498901 27.50884826 -31.87352558 30.26045043 -28.0703125 31.76171875 C-23.07382409 32.66575265 -19.41640373 31.54792523 -15 29 C-12.12092166 26.2724521 -11.12526945 24.45097003 -10.0625 20.625 C-9.98687195 16.2385733 -10.84441566 13.80819899 -13 10 C-17.32384563 5.99253332 -20.0123608 4.70846842 -25.95703125 4.7734375 C-28.87510897 5.09704841 -30.74346088 6.16656197 -33 8 Z M2 9 C-1.33031852 14.41176759 -1.34977691 18.02241653 0 24 C1.5369684 27.84242099 2.64212662 28.80418249 6.3125 30.8125 C11.31288772 32.42279435 14.27503154 32.67645822 19.1875 30.75 C22.73641677 28.54178512 24.4706551 27.11327614 25.50390625 22.98828125 C26.37922224 17.56132213 26.00219842 13.78475373 23 9 C19.73842594 6.15873187 16.76378842 5.10911263 12.5 4.5 C8.23996754 5.10857607 5.25568011 6.15547537 2 9 Z M-3 29 C-3 29.66 -3 30.32 -3 31 C-2.34 31 -1.68 31 -1 31 C-1 30.34 -1 29.68 -1 29 C-1.66 29 -2.32 29 -3 29 Z M-34 40 C-34.99290126 42.97870377 -35.05524548 44.59182885 -34.87890625 47.66796875 C-34.83056641 48.56064453 -34.78222656 49.45332031 -34.73242188 50.37304688 C-34.67634766 51.30181641 -34.62027344 52.23058594 -34.5625 53.1875 C-34.51029297 54.12787109 -34.45808594 55.06824219 -34.40429688 56.03710938 C-34.27468082 58.35841501 -34.13971819 60.67928409 -34 63 C-26.71578452 63.02312916 -19.4315769 63.04091801 -12.14733219 63.05181217 C-8.76528187 63.05703975 -5.3832566 63.06413511 -2.0012207 63.07543945 C1.88329777 63.08834267 5.76780597 63.09322924 9.65234375 63.09765625 C11.48199928 63.10539818 11.48199928 63.10539818 13.34861755 63.11329651 C14.46970413 63.11337204 15.59079071 63.11344757 16.74584961 63.11352539 C17.73846298 63.115746 18.73107635 63.11796661 19.75376892 63.12025452 C21.97026525 63.25249942 21.97026525 63.25249942 23 62 C23.09899523 60.45044441 23.13079524 58.89646327 23.1328125 57.34375 C23.13410156 56.40402344 23.13539062 55.46429688 23.13671875 54.49609375 C23.13091797 53.01302734 23.13091797 53.01302734 23.125 51.5 C23.12886719 50.51128906 23.13273437 49.52257812 23.13671875 48.50390625 C23.13478516 47.09431641 23.13478516 47.09431641 23.1328125 45.65625 C23.13112061 44.35397461 23.13112061 44.35397461 23.12939453 43.02539062 C23.2241537 41.00395846 23.2241537 41.00395846 22 40 C20.2507128 39.90634994 18.49763746 39.88255562 16.74584961 39.88647461 C15.06421974 39.88658791 15.06421974 39.88658791 13.34861755 39.88670349 C12.1288472 39.89186478 10.90907684 39.89702606 9.65234375 39.90234375 C7.7899984 39.90446617 7.7899984 39.90446617 5.89002991 39.90663147 C2.58394509 39.91129409 -0.72207146 39.92028503 -4.02813721 39.93133545 C-7.3996115 39.94155173 -10.77109283 39.94612955 -14.14257812 39.95117188 C-20.76173775 39.96222605 -27.38086493 39.97898264 -34 40 Z M-20.75 69.3125 C-21.79027344 69.62123047 -22.83054687 69.92996094 -23.90234375 70.24804688 C-30.17219126 71.93677067 -30.17219126 71.93677067 -35 76 C-35.40168722 78.46902015 -35.40168722 78.46902015 -35.25 81.1875 C-35.23453125 82.08855469 -35.2190625 82.98960938 -35.203125 83.91796875 C-34.95771258 87.64163033 -34.4926741 91.30097109 -34 95 C-33.01773438 94.73521851 -33.01773438 94.73521851 -32.015625 94.46508789 C-29.01186174 93.65872807 -26.00597769 92.86056334 -23 92.0625 C-21.45505859 91.64581055 -21.45505859 91.64581055 -19.87890625 91.22070312 C-16.92733469 90.44051064 -13.9709941 89.70239169 -11 89 C-10.28086426 88.82911865 -9.56172852 88.6582373 -8.82080078 88.48217773 C-2.99575318 87.40860194 1.68195888 89.07282999 7.125 90.9375 C14.86989923 93.60515718 14.86989923 93.60515718 23 94 C23.14515677 90.89632503 23.23400853 87.79351973 23.3125 84.6875 C23.3753418 83.36588867 23.3753418 83.36588867 23.43945312 82.01757812 C23.48553568 79.5936359 23.44220672 77.38393296 23 75 C21.13414188 72.85564376 21.13414188 72.85564376 18 72 C17.28271729 71.74516846 16.56543457 71.49033691 15.82641602 71.2277832 C13.27553661 70.35795091 10.70882944 69.57856949 8.125 68.8125 C7.25230469 68.53986328 6.37960938 68.26722656 5.48046875 67.98632812 C-4.25150573 65.06673578 -11.18657503 66.32317786 -20.75 69.3125 Z " fill="#B0482E" transform="translate(75,27)"/>
<path d="M0 0 C0.33 0 0.66 0 1 0 C1 9.9 1 19.8 1 30 C5.62 30 10.24 30 15 30 C15 30.99 15 31.98 15 33 C15.5775 32.690625 16.155 32.38125 16.75 32.0625 C18.86610718 31.06322716 20.72376414 30.49792659 23 30 C24.32 29.67 25.64 29.34 27 29 C15.615 28.505 15.615 28.505 4 28 C4 21.07 4 14.14 4 7 C4.33 7 4.66 7 5 7 C5 13.6 5 20.2 5 27 C23.48 26.67 41.96 26.34 61 26 C61 19.07 61 12.14 61 5 C42.52 4.67 24.04 4.34 5 4 C4.67 4.66 4.34 5.32 4 6 C4 5.01 4 4.02 4 3 C24.13 3 44.26 3 65 3 C65.495 14.385 65.495 14.385 66 26 C66.66 26 67.32 26 68 26 C68.495 27.485 68.495 27.485 69 29 C71.49759982 30.69882448 71.49759982 30.69882448 74 32 C74 31.34 74 30.68 74 30 C72.515 29.505 72.515 29.505 71 29 C74 28 74 28 76.64599609 29.04296875 C79 31 79 31 79.64697266 33.86328125 C79.6526123 35.00152344 79.65825195 36.13976562 79.6640625 37.3125 C79.67050781 38.55257812 79.67695312 39.79265625 79.68359375 41.0703125 C79.65458984 43.01550781 79.65458984 43.01550781 79.625 45 C79.64433594 46.29679687 79.66367188 47.59359375 79.68359375 48.9296875 C79.67714844 50.16976562 79.67070313 51.40984375 79.6640625 52.6875 C79.65842285 53.82574219 79.6527832 54.96398437 79.64697266 56.13671875 C79 59 79 59 76.62646484 60.81640625 C75.32636475 61.40228516 75.32636475 61.40228516 74 62 C72.6696875 62.61875 72.6696875 62.61875 71.3125 63.25 C62.18105173 65.31749772 52.87126161 61.72518748 44.2109375 58.99609375 C33.70919013 55.90473431 25.43952455 57.88134623 15.1875 61.0625 C13.37039258 61.6221025 11.55142485 62.17570725 9.73046875 62.72265625 C8.54553833 63.09015991 8.54553833 63.09015991 7.33666992 63.46508789 C5 64 5 64 0 64 C0 54.43 0 44.86 0 35 C2.64430277 33.94227889 5.29814878 32.90061707 8 32 C5.36 31.67 2.72 31.34 0 31 C0 20.77 0 10.54 0 0 Z M18.25 33.3125 C17.20972656 33.62123047 16.16945313 33.92996094 15.09765625 34.24804688 C8.82780874 35.93677067 8.82780874 35.93677067 4 40 C3.59831278 42.46902015 3.59831278 42.46902015 3.75 45.1875 C3.76546875 46.08855469 3.7809375 46.98960938 3.796875 47.91796875 C4.04228742 51.64163033 4.5073259 55.30097109 5 59 C5.98226562 58.73521851 5.98226562 58.73521851 6.984375 58.46508789 C9.98813826 57.65872807 12.99402231 56.86056334 16 56.0625 C17.54494141 55.64581055 17.54494141 55.64581055 19.12109375 55.22070312 C22.07266531 54.44051064 25.0290059 53.70239169 28 53 C28.71913574 52.82911865 29.43827148 52.6582373 30.17919922 52.48217773 C36.00424682 51.40860194 40.68195888 53.07282999 46.125 54.9375 C53.86989923 57.60515718 53.86989923 57.60515718 62 58 C62.14515677 54.89632503 62.23400853 51.79351973 62.3125 48.6875 C62.3753418 47.36588867 62.3753418 47.36588867 62.43945312 46.01757812 C62.48553568 43.5936359 62.44220672 41.38393296 62 39 C60.13414188 36.85564376 60.13414188 36.85564376 57 36 C56.28271729 35.74516846 55.56543457 35.49033691 54.82641602 35.2277832 C52.27553661 34.35795091 49.70882944 33.57856949 47.125 32.8125 C46.25230469 32.53986328 45.37960938 32.26722656 44.48046875 31.98632812 C34.74849427 29.06673578 27.81342497 30.32317786 18.25 33.3125 Z " fill="#A63114" transform="translate(36,63)"/>
<path d="M0 0 C-0.33 0.99 -0.66 1.98 -1 3 C-1.99 3.33 -2.98 3.66 -4 4 C-1.03 4.33 1.94 4.66 5 5 C5.12365029 9.21742593 5.21435665 13.43389111 5.2746582 17.65258789 C5.29979524 19.08734514 5.33391108 20.52197441 5.37719727 21.95629883 C5.43789665 24.0193637 5.46621353 26.08073615 5.48828125 28.14453125 C5.51446533 29.38565674 5.54064941 30.62678223 5.56762695 31.90551758 C5 35 5 35 2.46948242 36.9284668 C1.24708862 37.45887573 1.24708862 37.45887573 0 38 C0.66 38.33 1.32 38.66 2 39 C2 39.66 2 40.32 2 41 C-0.86724686 40.42655063 -1.8614515 40.1385485 -4 38 C-4 37.01 -4 36.02 -4 35 C-4.66 35 -5.32 35 -6 35 C-6.495 35.99 -6.495 35.99 -7 37 C-7 28.75 -7 20.5 -7 12 C-27.13 12 -47.26 12 -68 12 C-68 20.25 -68 28.5 -68 37 C-60.41 37 -52.82 37 -45 37 C-44.67 37.66 -44.34 38.32 -44 39 C-47.32799637 40.10933212 -50.53197414 40.50456773 -54 41 C-55.485 41.495 -55.485 41.495 -57 42 C-57 41.01 -57 40.02 -57 39 C-61.62 39 -66.24 39 -71 39 C-71 29.1 -71 19.2 -71 9 C-67.535 8.505 -67.535 8.505 -64 8 C-63.67 7.01 -63.34 6.02 -63 5 C-62.03578125 5.02320313 -61.0715625 5.04640625 -60.078125 5.0703125 C-58.81484375 5.08835937 -57.5515625 5.10640625 -56.25 5.125 C-54.37054688 5.15980469 -54.37054688 5.15980469 -52.453125 5.1953125 C-49.20043809 5.011337 -47.7566678 4.5329134 -45 3 C-44.34 3.33 -43.68 3.66 -43 4 C-40.44842345 4.0716735 -37.92527029 4.09308442 -35.375 4.0625 C-34.66859375 4.05798828 -33.9621875 4.05347656 -33.234375 4.04882812 C-31.48954725 4.03703875 -29.744763 4.01910324 -28 4 C-28 4.66 -28 5.32 -28 6 C-24.37 6 -20.74 6 -17 6 C-16.505 7.485 -16.505 7.485 -16 9 C-15.34 8.34 -14.68 7.68 -14 7 C-13.01 7 -12.02 7 -11 7 C-11 6.34 -11 5.68 -11 5 C-11.99 4.67 -12.98 4.34 -14 4 C-4.58997722 -0.59225513 -4.58997722 -0.59225513 0 0 Z " fill="#9F2509" transform="translate(108,54)"/>
<path d="M0 0 C0.33 0 0.66 0 1 0 C1 9.9 1 19.8 1 30 C5.62 30 10.24 30 15 30 C15 30.99 15 31.98 15 33 C15.5775 32.62875 16.155 32.2575 16.75 31.875 C17.4925 31.58625 18.235 31.2975 19 31 C21.140625 31.9453125 21.140625 31.9453125 23 33 C20.37605694 33.83679277 17.75095616 34.66956942 15.125 35.5 C14.37863281 35.73847656 13.63226563 35.97695312 12.86328125 36.22265625 C7.2265625 38 7.2265625 38 5 38 C4.97265143 40.02075566 4.9534483 42.04162221 4.9375 44.0625 C4.92589844 45.18785156 4.91429687 46.31320313 4.90234375 47.47265625 C5.0014585 51.05268113 5.42846687 54.46729524 6 58 C6.71019287 57.7827124 7.42038574 57.5654248 8.15209961 57.34155273 C11.40887388 56.35596045 14.67283643 55.39662052 17.9375 54.4375 C19.61295898 53.92413086 19.61295898 53.92413086 21.32226562 53.40039062 C31.42445523 50.46749687 38.3948449 51.15616655 48.1875 54.5 C52.76206191 56.03508789 57.20260214 57.34343544 62 58 C61.94815917 54.89446608 61.8531005 51.79172169 61.75 48.6875 C61.73582031 47.80642578 61.72164062 46.92535156 61.70703125 46.01757812 C61.66967182 40.9371324 61.66967182 40.9371324 58.953125 36.89453125 C58.30859375 36.59933594 57.6640625 36.30414063 57 36 C61.875 36.875 61.875 36.875 63 38 C63.08700342 39.63472882 63.10701063 41.27314055 63.09765625 42.91015625 C63.09443359 43.89951172 63.09121094 44.88886719 63.08789062 45.90820312 C63.07532227 47.46958008 63.07532227 47.46958008 63.0625 49.0625 C63.05798828 50.10728516 63.05347656 51.15207031 63.04882812 52.22851562 C63.03699913 54.8190666 63.02051689 57.40950559 63 60 C62.01 60.33 61.02 60.66 60 61 C60.66 61.66 61.32 62.32 62 63 C55.2941661 62.34614318 49.27442372 60.73641651 42.88671875 58.640625 C33.14944543 55.70425488 24.65619083 58.12441091 15.1875 61.0625 C13.37039258 61.6221025 11.55142485 62.17570725 9.73046875 62.72265625 C8.54553833 63.09015991 8.54553833 63.09015991 7.33666992 63.46508789 C5 64 5 64 0 64 C0 54.43 0 44.86 0 35 C2.64430277 33.94227889 5.29814878 32.90061707 8 32 C5.36 31.67 2.72 31.34 0 31 C0 20.77 0 10.54 0 0 Z " fill="#A75F4F" transform="translate(36,63)"/>
<path d="M0 0 C1.59375 1.3515625 1.59375 1.3515625 2.46875 5.0390625 C2.51 6.1321875 2.55125 7.2253125 2.59375 8.3515625 C3.25375 8.6815625 3.91375 9.0115625 4.59375 9.3515625 C3.60375 9.3515625 2.61375 9.3515625 1.59375 9.3515625 C0.8655052 14.34524114 0.20887818 19.34266164 -0.40625 24.3515625 C-0.73625 24.3515625 -1.06625 24.3515625 -1.40625 24.3515625 C-1.90125 21.3815625 -1.90125 21.3815625 -2.40625 18.3515625 C-3.39625 19.3415625 -4.38625 20.3315625 -5.40625 21.3515625 C-8.40625 17.7265625 -8.40625 17.7265625 -8.40625 14.3515625 C-9.39625 14.0215625 -10.38625 13.6915625 -11.40625 13.3515625 C-13.09336423 11.7055974 -14.7608122 10.03919101 -16.40625 8.3515625 C-20.0950522 6.5071614 -24.68527763 6.85985611 -28.59375 7.9765625 C-31.98666859 10.55050074 -35.01244987 13.07627285 -35.7578125 17.3828125 C-35.79601756 20.79579789 -35.48787306 24.10669331 -34.40625 27.3515625 C-36.84375 26.9765625 -36.84375 26.9765625 -39.40625 26.3515625 C-40.94620173 23.27165905 -40.63002524 20.76413489 -40.40625 17.3515625 C-38.36495224 11.43179901 -35.93565286 6.81630167 -30.41796875 3.62109375 C-9.98161094 -5.33632277 -9.98161094 -5.33632277 0 0 Z " fill="#A56352" transform="translate(73.40625,25.6484375)"/>
<path d="M0 0 C-1.98 0.33 -3.96 0.66 -6 1 C-6.33 2.32 -6.66 3.64 -7 5 C-9.31 4.67 -11.62 4.34 -14 4 C-14 4.66 -14 5.32 -14 6 C-11.69 6 -9.38 6 -7 6 C-7 6.33 -7 6.66 -7 7 C-8.216875 7.28875 -9.43375 7.5775 -10.6875 7.875 C-12.12524291 8.24906762 -13.56275518 8.62402316 -15 9 C-15.94875 9.226875 -16.8975 9.45375 -17.875 9.6875 C-20.31647143 10.91799285 -20.31647143 10.91799285 -21.375 14.125 C-22.28452338 19.76404493 -22.19520505 26.06195583 -19 31 C-13.332582 33.28876496 -7.86560199 33.80480061 -2 32 C-1.34 33.32 -0.68 34.64 0 36 C-2.64738916 37.4606285 -3.89448334 38 -7 38 C-7 37.34 -7 36.68 -7 36 C-10.3 35.67 -13.6 35.34 -17 35 C-17 34.34 -17 33.68 -17 33 C-17.99 33.33 -18.98 33.66 -20 34 C-21.99820728 34.09435979 -23.99957203 34.12990301 -26 34.125 C-27.051875 34.12757812 -28.10375 34.13015625 -29.1875 34.1328125 C-32 34 -32 34 -35 33 C-35.75667969 33.30679688 -36.51335938 33.61359375 -37.29296875 33.9296875 C-40.48082689 35.19011049 -42.89883662 35.20002557 -46.3125 35.125 C-47.38113281 35.10695312 -48.44976562 35.08890625 -49.55078125 35.0703125 C-50.76314453 35.03550781 -50.76314453 35.03550781 -52 35 C-52.33 35.66 -52.66 36.32 -53 37 C-55.32156597 37.40729228 -57.6568787 37.74438677 -60 38 C-59.34 36.68 -58.68 35.36 -58 34 C-59.32 32.35 -60.64 30.7 -62 29 C-61.67 28.34 -61.34 27.68 -61 27 C-60.34 27 -59.68 27 -59 27 C-59.33 26.01 -59.66 25.02 -60 24 C-60.203125 22.0625 -60.203125 22.0625 -60.25 20 C-60.27578125 19.319375 -60.3015625 18.63875 -60.328125 17.9375 C-59.90799002 15.45670295 -58.88936477 14.59104402 -57 13 C-57.10699219 13.65226562 -57.21398438 14.30453125 -57.32421875 14.9765625 C-58.09374011 20.58662143 -58.33021177 24.12361848 -55 29 C-54.4121875 29.8971875 -54.4121875 29.8971875 -53.8125 30.8125 C-50.77135689 32.80497307 -47.54802244 33.11067226 -44 33 C-40.38725602 31.87471909 -37.89236381 30.83287289 -35.125 28.25 C-33.6068773 25.21375461 -33.35986605 22.35874983 -33 19 C-32.69096017 17.66082739 -32.37057089 16.32346746 -32 15 C-31.01 16.65 -30.02 18.3 -29 20 C-24.78951205 17.05265844 -22.49416202 13.94222821 -21 9 C-21.30087716 5.77171763 -21.30087716 5.77171763 -22 3 C-21.31035156 3.2165625 -20.62070313 3.433125 -19.91015625 3.65625 C-16.10019373 4.10628584 -13.93393835 3.02336132 -10.4375 1.5 C-3.59220539 -1.47552691 -3.59220539 -1.47552691 0 0 Z M-25 31 C-25 31.66 -25 32.32 -25 33 C-24.34 33 -23.68 33 -23 33 C-23 32.34 -23 31.68 -23 31 C-23.66 31 -24.32 31 -25 31 Z " fill="#9F280E" transform="translate(97,25)"/>
<path d="M0 0 C0.14483042 4.43715855 0.23391752 8.87371277 0.3125 13.3125 C0.3753418 15.20645508 0.3753418 15.20645508 0.43945312 17.13867188 C0.45556641 18.34716797 0.47167969 19.55566406 0.48828125 20.80078125 C0.51446533 21.91622314 0.54064941 23.03166504 0.56762695 24.1809082 C0 27 0 27 -2.53051758 28.88745117 C-3.75291138 29.43816284 -3.75291138 29.43816284 -5 30 C-4.34 30.33 -3.68 30.66 -3 31 C-3 31.66 -3 32.32 -3 33 C-5.86724686 32.42655063 -6.8614515 32.1385485 -9 30 C-9 29.01 -9 28.02 -9 27 C-9.66 27 -10.32 27 -11 27 C-11.33 27.66 -11.66 28.32 -12 29 C-12 20.75 -12 12.5 -12 4 C-12.66 4 -13.32 4 -14 4 C-14.33 2.68 -14.66 1.36 -15 0 C-9.78577005 -1.22687763 -5.17533757 -1.40234953 0 0 Z " fill="#A72202" transform="translate(113,62)"/>
<path d="M0 0 C0.12375 1.134375 0.2475 2.26875 0.375 3.4375 C0.58125 4.613125 0.7875 5.78875 1 7 C1.66 7.33 2.32 7.66 3 8 C2.01 8 1.02 8 0 8 C-0.7282448 12.99367864 -1.38487182 17.99109914 -2 23 C-2.33 23 -2.66 23 -3 23 C-3.33 21.02 -3.66 19.04 -4 17 C-4.99 17.99 -5.98 18.98 -7 20 C-9.7147897 16.89738321 -10.94961937 13.72896851 -12.3046875 9.90625 C-13.05496498 7.8493095 -13.95737634 5.92484367 -15 4 C-12.78209843 1.3555789 -11.43032326 0.11902558 -8.0625 -0.8125 C-5.12267276 -0.99248942 -2.83459415 -0.75033374 0 0 Z " fill="#A42707" transform="translate(75,27)"/>
<path d="M0 0 C0.99 0 1.98 0 3 0 C3 0.66 3 1.32 3 2 C22.47 2 41.94 2 62 2 C62 2.33 62 2.66 62 3 C42.53 3 23.06 3 3 3 C3 11.25 3 19.5 3 28 C10.59 28 18.18 28 26 28 C26.33 28.66 26.66 29.32 27 30 C23.67200363 31.10933212 20.46802586 31.50456773 17 32 C15.515 32.495 15.515 32.495 14 33 C14 32.01 14 31.02 14 30 C9.38 30 4.76 30 0 30 C0 20.1 0 10.2 0 0 Z " fill="#8C3423" transform="translate(37,63)"/>
<path d="M0 0 C19.47 0 38.94 0 59 0 C59 8.25 59 16.5 59 25 C51.41 25.33 43.82 25.66 36 26 C37.32 26.99 38.64 27.98 40 29 C39.07058594 28.91621094 38.14117187 28.83242187 37.18359375 28.74609375 C28.04582346 27.95821743 28.04582346 27.95821743 19 29 C19 28.01 19 27.02 19 26 C12.73 25.67 6.46 25.34 0 25 C0 18.07 0 11.14 0 4 C0.33 4 0.66 4 1 4 C1 10.6 1 17.2 1 24 C19.48 23.67 37.96 23.34 57 23 C57 16.07 57 9.14 57 2 C38.52 1.67 20.04 1.34 1 1 C0.67 1.66 0.34 2.32 0 3 C0 2.01 0 1.02 0 0 Z " fill="#EFC2B5" transform="translate(40,66)"/>
<path d="M0 0 C0.33 0 0.66 0 1 0 C1 9.9 1 19.8 1 30 C5.62 30 10.24 30 15 30 C15 30.99 15 31.98 15 33 C15.5775 32.62875 16.155 32.2575 16.75 31.875 C17.4925 31.58625 18.235 31.2975 19 31 C21.140625 31.9453125 21.140625 31.9453125 23 33 C20.37605694 33.83679277 17.75095616 34.66956942 15.125 35.5 C14.37863281 35.73847656 13.63226563 35.97695312 12.86328125 36.22265625 C7.2265625 38 7.2265625 38 5 38 C5.02320313 38.77085938 5.04640625 39.54171875 5.0703125 40.3359375 C5.09738281 41.84027344 5.09738281 41.84027344 5.125 43.375 C5.14820313 44.37273437 5.17140625 45.37046875 5.1953125 46.3984375 C5 49 5 49 3 51 C2.67 48.69 2.34 46.38 2 44 C1.67 50.6 1.34 57.2 1 64 C0.67 64 0.34 64 0 64 C0 54.43 0 44.86 0 35 C2.64430277 33.94227889 5.29814878 32.90061707 8 32 C5.36 31.67 2.72 31.34 0 31 C0 20.77 0 10.54 0 0 Z " fill="#CC9080" transform="translate(36,63)"/>
<path d="M0 0 C4.875 0.875 4.875 0.875 6 2 C6.08700342 3.63472882 6.10701063 5.27314055 6.09765625 6.91015625 C6.09443359 7.89951172 6.09121094 8.88886719 6.08789062 9.90820312 C6.07951172 10.94912109 6.07113281 11.99003906 6.0625 13.0625 C6.05798828 14.10728516 6.05347656 15.15207031 6.04882812 16.22851562 C6.03699913 18.8190666 6.02051689 21.40950559 6 24 C5.01 24.33 4.02 24.66 3 25 C3.66 25.66 4.32 26.32 5 27 C-1.06370342 26.39502042 -6.65514242 25.1366972 -12.5 23.4375 C-13.32242188 23.20353516 -14.14484375 22.96957031 -14.9921875 22.72851562 C-16.99629058 22.15757928 -18.99836591 21.57953295 -21 21 C-21 20.67 -21 20.34 -21 20 C-19.35 20 -17.7 20 -16 20 C-16 19.34 -16 18.68 -16 18 C-17.65 17.67 -19.3 17.34 -21 17 C-16.82183505 15.20317259 -13.16651806 16.98086166 -9.125 18.375 C-4.42059653 19.96349987 0.05337997 21.33321423 5 22 C4.94815917 18.89446608 4.8531005 15.79172169 4.75 12.6875 C4.73582031 11.80642578 4.72164062 10.92535156 4.70703125 10.01757812 C4.66967182 4.9371324 4.66967182 4.9371324 1.953125 0.89453125 C1.30859375 0.59933594 0.6640625 0.30414063 0 0 Z " fill="#B07162" transform="translate(93,99)"/>
<path d="M0 0 C1 2 1 2 0.375 5.75 C-0.34062865 10.80527415 1.4561985 13.6436714 4.1875 17.8125 C7.22864311 19.80497307 10.45197756 20.11067226 14 20 C17.61274398 18.87471909 20.10763619 17.83287289 22.875 15.25 C24.3931227 12.21375461 24.64013395 9.35874983 25 6 C25.31557198 4.66235161 25.64478937 3.32767251 26 2 C26.16873478 3.43725871 26.33490737 4.87481838 26.5 6.3125 C26.5928125 7.11300781 26.685625 7.91351563 26.78125 8.73828125 C27 11 27 11 27 14 C26.34 14 25.68 14 25 14 C24.9175 14.763125 24.835 15.52625 24.75 16.3125 C24 19 24 19 22.40625 20.65625 C19.08665565 22.51004944 16.52368846 22.29232468 12.75 22.1875 C11.48671875 22.16042969 10.2234375 22.13335937 8.921875 22.10546875 C7.95765625 22.07066406 6.9934375 22.03585938 6 22 C5.67 22.66 5.34 23.32 5 24 C2.67843403 24.40729228 0.3431213 24.74438677 -2 25 C-1.34 23.68 -0.68 22.36 0 21 C-1.32 19.35 -2.64 17.7 -4 16 C-3.67 15.34 -3.34 14.68 -3 14 C-2.34 14 -1.68 14 -1 14 C-1.33 13.01 -1.66 12.02 -2 11 C-2.16796875 9.0625 -2.16796875 9.0625 -2.1875 7 C-2.20167969 6.319375 -2.21585938 5.63875 -2.23046875 4.9375 C-2 3 -2 3 0 0 Z " fill="#BD7664" transform="translate(39,38)"/>
<path d="M0 0 C-2.95183101 2.95183101 -5.95511947 3.08663988 -10 4 C-10.33 5.65 -10.66 7.3 -11 9 C-10.34 9.33 -9.68 9.66 -9 10 C-9 10.99 -9 11.98 -9 13 C-8.34 13.33 -7.68 13.66 -7 14 C-7.99 14 -8.98 14 -10 14 C-10.433125 12.865625 -10.86625 11.73125 -11.3125 10.5625 C-12.30304645 8.55080713 -12.30304645 8.55080713 -14 7 C-17.67092812 6.07038367 -21.22429112 5.9544311 -25 6 C-22.14284152 1.40370158 -19.32176381 -0.05120209 -14.30859375 -1.5 C-9.02205858 -2.6449687 -4.86227082 -2.35746464 0 0 Z " fill="#B45B45" transform="translate(72,25)"/>
<path d="M0 0 C-1.98 0.33 -3.96 0.66 -6 1 C-6.33 2.32 -6.66 3.64 -7 5 C-9.31 4.67 -11.62 4.34 -14 4 C-14 4.66 -14 5.32 -14 6 C-11.69 6 -9.38 6 -7 6 C-7 6.33 -7 6.66 -7 7 C-8.216875 7.28875 -9.43375 7.5775 -10.6875 7.875 C-12.12524291 8.24906762 -13.56275518 8.62402316 -15 9 C-16.423125 9.3403125 -16.423125 9.3403125 -17.875 9.6875 C-20.31647143 10.91799285 -20.31647143 10.91799285 -21.375 14.125 C-22.35532608 20.20302169 -21.6445942 25.35819904 -19 31 C-22 30 -22 30 -24 27 C-24.81134533 21.06769584 -23.96117877 16.25303717 -21.6015625 10.828125 C-20.68608198 8.04601536 -21.23961397 5.7650401 -22 3 C-21.31035156 3.2165625 -20.62070313 3.433125 -19.91015625 3.65625 C-16.10019373 4.10628584 -13.93393835 3.02336132 -10.4375 1.5 C-3.59220539 -1.47552691 -3.59220539 -1.47552691 0 0 Z " fill="#B66B5B" transform="translate(97,25)"/>
<path d="M0 0 C0 0.66 0 1.32 0 2 C0.66 2 1.32 2 2 2 C1.35679612 5.73058252 1.35679612 5.73058252 -0.53125 7.15625 C-2.8282328 10.0396965 -2.31551453 13.17202407 -2.1875 16.6875 C-2.17396484 17.38939453 -2.16042969 18.09128906 -2.14648438 18.81445312 C-2.11120182 20.54329829 -2.05739583 22.27174765 -2 24 C-2.33 24 -2.66 24 -3 24 C-3.12117188 23.34773438 -3.24234375 22.69546875 -3.3671875 22.0234375 C-5.33630727 11.3505895 -5.33630727 11.3505895 -12 3 C-11.01 2.67 -10.02 2.34 -9 2 C-9 1.34 -9 0.68 -9 0 C-5.93109813 -1.53445094 -3.29905734 -0.54984289 0 0 Z " fill="#A22405" transform="translate(105,26)"/>
<path d="M0 0 C0.33 0 0.66 0 1 0 C1 9.9 1 19.8 1 30 C5.62 30 10.24 30 15 30 C15 30.99 15 31.98 15 33 C15.5775 32.62875 16.155 32.2575 16.75 31.875 C17.4925 31.58625 18.235 31.2975 19 31 C20.32 31.66 21.64 32.32 23 33 C19.37 33.99 15.74 34.98 12 36 C12 35.34 12 34.68 12 34 C7.87477326 31.42173329 5.45556967 31.68194621 0 31 C0 20.77 0 10.54 0 0 Z " fill="#E5AB9B" transform="translate(36,63)"/>
<path d="M0 0 C-3.75 2 -3.75 2 -6 2 C-6 2.66 -6 3.32 -6 4 C-6.99 4.495 -6.99 4.495 -8 5 C-7.67 5.99 -7.34 6.98 -7 8 C-6.01 8.433125 -6.01 8.433125 -5 8.875 C-3 10 -3 10 -2.25 12.625 C-2.12625 13.800625 -2.12625 13.800625 -2 15 C-5.16115776 13.63016497 -5.9927092 13.0109362 -8 10 C-11.40611192 7.72925872 -14.99510097 7.46210373 -19 7 C-19 6.34 -19 5.68 -19 5 C-16.69 5.33 -14.38 5.66 -12 6 C-11.95875 5.38125 -11.9175 4.7625 -11.875 4.125 C-11 2 -11 2 -8.25 0.75 C-5.34152238 0.07881286 -2.96372016 -0.17433648 0 0 Z " fill="#942A0F" transform="translate(102,24)"/>
<path d="M0 0 C0.66 0.33 1.32 0.66 2 1 C2.639375 0.814375 3.27875 0.62875 3.9375 0.4375 C4.618125 0.293125 5.29875 0.14875 6 0 C6.99 0.66 7.98 1.32 9 2 C8.34 2 7.68 2 7 2 C7 2.66 7 3.32 7 4 C2.82262526 5.59138085 -0.53160785 6.21278058 -5 6 C-5 5.34 -5 4.68 -5 4 C-5.99 3.67 -6.98 3.34 -8 3 C-6.02253397 2.26919734 -4.01927511 1.60578253 -2 1 C-1.34 1.33 -0.68 1.66 0 2 C0 1.34 0 0.68 0 0 Z " fill="#A3422B" transform="translate(103,121)"/>
<path d="M0 0 C4.875 0.875 4.875 0.875 6 2 C6.08700342 3.63472882 6.10701063 5.27314055 6.09765625 6.91015625 C6.09443359 7.89951172 6.09121094 8.88886719 6.08789062 9.90820312 C6.07951172 10.94912109 6.07113281 11.99003906 6.0625 13.0625 C6.05798828 14.10728516 6.05347656 15.15207031 6.04882812 16.22851562 C6.03699913 18.8190666 6.02051689 21.40950559 6 24 C5.01 24.33 4.02 24.66 3 25 C3.66 25.66 4.32 26.32 5 27 C0.03083364 26.48594831 -4.29026351 25.76615118 -9 24 C-5.18510326 22.53273202 -2.70988378 23.56663581 1 25 C0.67 24.01 0.34 23.02 0 22 C1.65 22 3.3 22 5 22 C4.94815917 18.89446608 4.8531005 15.79172169 4.75 12.6875 C4.73582031 11.80642578 4.72164062 10.92535156 4.70703125 10.01757812 C4.66967182 4.9371324 4.66967182 4.9371324 1.953125 0.89453125 C1.30859375 0.59933594 0.6640625 0.30414063 0 0 Z " fill="#D8A090" transform="translate(93,99)"/>
<path d="M0 0 C0.66 0.33 1.32 0.66 2 1 C1.01 1.66 0.02 2.32 -1 3 C2.3 3.33 5.6 3.66 9 4 C9.33 4.99 9.66 5.98 10 7 C9.505 6.835 9.01 6.67 8.5 6.5 C3.87208905 5.57441781 -0.38809529 5.34058444 -4.75 7.125 C-5.4925 7.41375 -6.235 7.7025 -7 8 C-9.140625 7.0546875 -9.140625 7.0546875 -11 6 C-9.73168307 5.18357746 -8.46024069 4.37200895 -7.1875 3.5625 C-6.47980469 3.11003906 -5.77210937 2.65757813 -5.04296875 2.19140625 C-3 1 -3 1 0 0 Z " fill="#AE6857" transform="translate(49,27)"/>
<path d="M0 0 C0.86625 0.33 1.7325 0.66 2.625 1 C7.31344704 2.38916949 11.32419329 2.43870976 16 1 C16.66 2.32 17.32 3.64 18 5 C15.35261084 6.4606285 14.10551666 7 11 7 C11 6.34 11 5.68 11 5 C7.7 4.67 4.4 4.34 1 4 C0.67 2.68 0.34 1.36 0 0 Z " fill="#AF442B" transform="translate(79,56)"/>
<path d="M0 0 C1.75570312 0.01353516 1.75570312 0.01353516 3.546875 0.02734375 C4.43890625 0.03894531 5.3309375 0.05054687 6.25 0.0625 C6.58 0.7225 6.91 1.3825 7.25 2.0625 C8.24 2.7225 9.23 3.3825 10.25 4.0625 C9.32058594 3.97871094 8.39117187 3.89492187 7.43359375 3.80859375 C-1.70417654 3.02071743 -1.70417654 3.02071743 -10.75 4.0625 C-10.75 3.0725 -10.75 2.0825 -10.75 1.0625 C-7.14006828 -0.07230527 -3.7657673 -0.03765767 0 0 Z " fill="#B27D70" transform="translate(69.75,90.9375)"/>
<path d="M0 0 C1 2 1 2 0.375 5.75 C-0.41749604 11.27740908 2.00074299 14.50111448 5 19 C2.525 18.01 2.525 18.01 0 17 C-0.33 17.99 -0.66 18.98 -1 20 C-1.99 18.68 -2.98 17.36 -4 16 C-3.67 15.34 -3.34 14.68 -3 14 C-2.34 14 -1.68 14 -1 14 C-1.33 13.01 -1.66 12.02 -2 11 C-2.16796875 9.0625 -2.16796875 9.0625 -2.1875 7 C-2.20167969 6.319375 -2.21585938 5.63875 -2.23046875 4.9375 C-2 3 -2 3 0 0 Z " fill="#DCACA4" transform="translate(39,38)"/>
<path d="M0 0 C0.83265381 0.00523682 1.66530762 0.01047363 2.52319336 0.01586914 C3.42231445 0.0190918 4.32143555 0.02231445 5.24780273 0.02563477 C6.66609375 0.03820312 6.66609375 0.03820312 8.11303711 0.05102539 C9.06243164 0.05553711 10.01182617 0.06004883 10.98999023 0.06469727 C13.34356776 0.07652429 15.69702188 0.09300514 18.05053711 0.11352539 C18.05053711 0.44352539 18.05053711 0.77352539 18.05053711 1.11352539 C13.76053711 1.11352539 9.47053711 1.11352539 5.05053711 1.11352539 C5.05053711 1.77352539 5.05053711 2.43352539 5.05053711 3.11352539 C6.37053711 3.77352539 7.69053711 4.43352539 9.05053711 5.11352539 C7.42385231 4.83140662 5.79920815 4.53750164 4.17553711 4.23852539 C2.8181543 3.99489258 2.8181543 3.99489258 1.43334961 3.74633789 C-0.94946289 3.11352539 -0.94946289 3.11352539 -2.94946289 1.11352539 C-1.94946289 0.11352539 -1.94946289 0.11352539 0 0 Z " fill="#80200F" transform="translate(77.949462890625,90.886474609375)"/>
<path d="M0 0 C0.556875 0.391875 1.11375 0.78375 1.6875 1.1875 C1.6875 2.5075 1.6875 3.8275 1.6875 5.1875 C-1.6125 5.1875 -4.9125 5.1875 -8.3125 5.1875 C-7.3125 2.1875 -7.3125 2.1875 -5 0.375 C-2.3125 -0.8125 -2.3125 -0.8125 0 0 Z " fill="#A82404" transform="translate(64.3125,57.8125)"/>
<path d="M0 0 C0.66 0.33 1.32 0.66 2 1 C2 1.66 2 2.32 2 3 C-1.96 3 -5.92 3 -10 3 C-10 2.01 -10 1.02 -10 0 C-6.27762318 -1.24079227 -3.82468076 -0.6953965 0 0 Z " fill="#A65C49" transform="translate(75,116)"/>
<path d="M0 0 C2.13586678 3.20380017 2.23132175 4.01939967 2.125 7.6875 C2.10695313 8.49574219 2.08890625 9.30398437 2.0703125 10.13671875 C2.03550781 11.05904297 2.03550781 11.05904297 2 12 C1.34 12 0.68 12 0 12 C-0.061875 12.763125 -0.12375 13.52625 -0.1875 14.3125 C-1 17 -1 17 -3.5625 18.8125 C-4.366875 19.204375 -5.17125 19.59625 -6 20 C-5.05341663 17.37869219 -4.23221815 15.27866178 -2.4375 13.125 C0.23267211 9.17778906 0 4.63636407 0 0 Z " fill="#B0634E" transform="translate(64,40)"/>
<path d="M0 0 C3.02764248 3.02764248 2.78165898 6.20747221 3.11328125 10.35546875 C3 13 3 13 1.0625 15.6875 C0.381875 16.120625 -0.29875 16.55375 -1 17 C-1.99 16.67 -2.98 16.34 -4 16 C-3.525625 15.525625 -3.05125 15.05125 -2.5625 14.5625 C0.12736403 10.15112299 0 5.07525503 0 0 Z " fill="#B56654" transform="translate(100,40)"/>
<path d="M0 0 C3.375 0.875 3.375 0.875 5.375 2.875 C2.73041621 4.19729189 0.69738699 3.97177194 -2.25 3.9375 C-3.25289062 3.92847656 -4.25578125 3.91945313 -5.2890625 3.91015625 C-6.05992188 3.89855469 -6.83078125 3.88695312 -7.625 3.875 C-5.09785139 0.53916384 -4.30016242 -0.14828146 0 0 Z " fill="#9E260A" transform="translate(54.625,27.125)"/>
<path d="M0 0 C0.33 0 0.66 0 1 0 C1 6.6 1 13.2 1 20 C-1.31 20.99 -3.62 21.98 -6 23 C-5.505 21.515 -5.505 21.515 -5 20 C-3.35 19.34 -1.7 18.68 0 18 C0 12.06 0 6.12 0 0 Z " fill="#9A280E" transform="translate(112,69)"/>
<path d="M0 0 C-0.598125 0.28875 -1.19625 0.5775 -1.8125 0.875 C-4.19327792 2.04742026 -4.19327792 2.04742026 -7 4 C-6.67 4.66 -6.34 5.32 -6 6 C-8.31 6.33 -10.62 6.66 -13 7 C-12.34 6.67 -11.68 6.34 -11 6 C-11 5.34 -11 4.68 -11 4 C-12.32 3.67 -13.64 3.34 -15 3 C-13.44033782 2.491217 -11.87710759 1.99336531 -10.3125 1.5 C-9.44238281 1.2215625 -8.57226562 0.943125 -7.67578125 0.65625 C-5.00608323 0.00149195 -2.73603316 -0.11831495 0 0 Z " fill="#C18A7B" transform="translate(72,114)"/>
<path d="M0 0 C2.12472576 -0.05386629 4.24983652 -0.09273071 6.375 -0.125 C7.55835938 -0.14820312 8.74171875 -0.17140625 9.9609375 -0.1953125 C13 0 13 0 15 2 C13.3603125 2.2165625 13.3603125 2.2165625 11.6875 2.4375 C8.06877013 2.88288104 8.06877013 2.88288104 5 4 C5 3.01 5 2.02 5 1 C3.35 1 1.7 1 0 1 C0 0.67 0 0.34 0 0 Z " fill="#95270E" transform="translate(46,92)"/>
<path d="M0 0 C1 2 1 2 0.375 5.75 C-0.25680397 9.98770955 0.87087774 12.27403604 3 16 C2.67 16.66 2.34 17.32 2 18 C0 16.625 0 16.625 -2 14 C-2.72944121 8.89391153 -2.61423592 4.51739966 0 0 Z " fill="#CD998B" transform="translate(75,38)"/>
<path d="M0 0 C0 0.66 0 1.32 0 2 C-0.66 2 -1.32 2 -2 2 C-2 2.66 -2 3.32 -2 4 C-4.64 4 -7.28 4 -10 4 C-10 3.34 -10 2.68 -10 2 C-6.49223216 0.39644899 -3.85645121 -0.22036864 0 0 Z " fill="#923F2C" transform="translate(61,118)"/>
<path d="M0 0 C3.65316671 1.24976756 4.78065836 1.67098753 7 5 C7.99 5.66 8.98 6.32 10 7 C5.428721 6.45144652 1.32564205 5.58255197 -3 4 C-1.68 3.67 -0.36 3.34 1 3 C0.67 2.01 0.34 1.02 0 0 Z " fill="#BB6752" transform="translate(83,92)"/>
<path d="M0 0 C2 3 2 3 2 5 C2.99 5.33 3.98 5.66 5 6 C5.6875 8.0625 5.6875 8.0625 6 10 C3.5625 9.625 3.5625 9.625 1 9 C-0.4783226 6.04335481 -0.06032783 3.25770263 0 0 Z " fill="#B37968" transform="translate(33,43)"/>
<path d="M0 0 C1.8871875 0.061875 1.8871875 0.061875 3.8125 0.125 C3.4825 1.445 3.1525 2.765 2.8125 4.125 C-0.4875 3.465 -3.7875 2.805 -7.1875 2.125 C-4.09861478 0.06574319 -3.47814073 -0.1140374 0 0 Z " fill="#99250E" transform="translate(109.1875,58.875)"/>
<path d="M0 0 C0 0.66 0 1.32 0 2 C-2.70879335 3.35439668 -5.00933268 3.06501451 -8 3 C-8.33 2.34 -8.66 1.68 -9 1 C-5.64919071 -1.10976881 -3.77897651 -1.0497157 0 0 Z " fill="#954533" transform="translate(48,97)"/>
<path d="M0 0 C2.8125 -0.25 2.8125 -0.25 6 0 C7.9375 1.8125 7.9375 1.8125 9 4 C8.67 4.99 8.34 5.98 8 7 C7.236875 6.21625 6.47375 5.4325 5.6875 4.625 C3.09108195 1.92742283 3.09108195 1.92742283 0 0 Z " fill="#B86E62" transform="translate(91,32)"/>
<path d="M0 0 C0.66 0 1.32 0 2 0 C2 0.99 2 1.98 2 3 C2.5775 2.62875 3.155 2.2575 3.75 1.875 C6 1 6 1 8.25 1.875 C8.8275 2.24625 9.405 2.6175 10 3 C6.47940432 4.17353189 3.693507 4.20146402 0 4 C-0.66 3.34 -1.32 2.68 -2 2 C-1.34 2 -0.68 2 0 2 C0 1.34 0 0.68 0 0 Z " fill="#B15A45" transform="translate(49,93)"/>
<path d="M0 0 C0.66 0.33 1.32 0.66 2 1 C1.34 5.62 0.68 10.24 0 15 C-0.33 15 -0.66 15 -1 15 C-1.02693575 12.87506859 -1.04636628 10.75004088 -1.0625 8.625 C-1.07410156 7.44164062 -1.08570312 6.25828125 -1.09765625 5.0390625 C-1 2 -1 2 0 0 Z " fill="#922711" transform="translate(73,35)"/>
<path d="M0 0 C1.98 0 3.96 0 6 0 C6 0.66 6 1.32 6 2 C7.32 2.66 8.64 3.32 10 4 C6.7 3.34 3.4 2.68 0 2 C0 1.34 0 0.68 0 0 Z " fill="#8F2812" transform="translate(77,92)"/>
<path d="M0 0 C6.75 0.875 6.75 0.875 9 2 C9 2.66 9 3.32 9 4 C7.35 4 5.7 4 4 4 C3.67 3.01 3.34 2.02 3 1 C2.01 0.67 1.02 0.34 0 0 Z " fill="#813822" transform="translate(68,115)"/>
<path d="M0 0 C5.445 1.485 5.445 1.485 11 3 C11 3.33 11 3.66 11 4 C7.7 4 4.4 4 1 4 C0.67 2.68 0.34 1.36 0 0 Z " fill="#C48672" transform="translate(79,56)"/>
<path d="M0 0 C0 0.66 0 1.32 0 2 C1.32 1.67 2.64 1.34 4 1 C4 1.66 4 2.32 4 3 C0.7 3 -2.6 3 -6 3 C-4.60722783 0.21445565 -3.01148006 0 0 0 Z " fill="#E69B8B" transform="translate(72,56)"/>
<path d="M0 0 C0.66 0 1.32 0 2 0 C2 2.64 2 5.28 2 8 C1.34 8 0.68 8 0 8 C-0.79953138 4.71303767 -1.09658936 3.28976808 0 0 Z " fill="#80301F" transform="translate(35,40)"/>
<path d="M0 0 C2.97 0.495 2.97 0.495 6 1 C4.625 2.5 4.625 2.5 3 4 C2.34 4 1.68 4 1 4 C1 4.66 1 5.32 1 6 C0.34 6 -0.32 6 -1 6 C-0.67 4.02 -0.34 2.04 0 0 Z " fill="#B76B5C" transform="translate(76,32)"/>
<path d="M0 0 C2.64 0 5.28 0 8 0 C7.34 1.32 6.68 2.64 6 4 C5.01 3.67 4.02 3.34 3 3 C3.33 2.34 3.66 1.68 4 1 C2.68 0.67 1.36 0.34 0 0 Z " fill="#AC6A5B" transform="translate(42,121)"/>
<path d="M0 0 C2.64 0 5.28 0 8 0 C6.68 0.33 5.36 0.66 4 1 C4 1.66 4 2.32 4 3 C4.66 3.33 5.32 3.66 6 4 C4.68 4 3.36 4 2 4 C2 3.34 2 2.68 2 2 C1.34 2 0.68 2 0 2 C0 1.34 0 0.68 0 0 Z " fill="#AE6658" transform="translate(78,118)"/>
<path d="M0 0 C2.31 0.33 4.62 0.66 7 1 C5.3125 2.5625 5.3125 2.5625 3 4 C0.25 3.6875 0.25 3.6875 -2 3 C-1.34 2.01 -0.68 1.02 0 0 Z " fill="#B26E62" transform="translate(40,31)"/>
<path d="M0 0 C0.99 0.33 1.98 0.66 3 1 C2.67 1.99 2.34 2.98 2 4 C0.02 4 -1.96 4 -4 4 C-2.68 2.68 -1.36 1.36 0 0 Z " fill="#8A2A14" transform="translate(51,27)"/>
<path d="" fill="#FFFFFF" transform="translate(0,0)"/>
<path d="" fill="#FFFFFF" transform="translate(0,0)"/>
<path d="" fill="#FFFFFF" transform="translate(0,0)"/>
<path d="" fill="#FFFFFF" transform="translate(0,0)"/>
<path d="" fill="#FFFFFF" transform="translate(0,0)"/>
<path d="" fill="#FFFFFF" transform="translate(0,0)"/>
<path d="" fill="#FFFFFF" transform="translate(0,0)"/>
<path d="" fill="#FFFFFF" transform="translate(0,0)"/>
<path d="" fill="#FFFFFF" transform="translate(0,0)"/>
<path d="" fill="#FFFFFF" transform="translate(0,0)"/>
<path d="" fill="#FFFFFF" transform="translate(0,0)"/>
<path d="" fill="#FFFFFF" transform="translate(0,0)"/>
<path d="" fill="#FFFFFF" transform="translate(0,0)"/>
<path d="" fill="#FFFFFF" transform="translate(0,0)"/>
<path d="" fill="#FFFFFF" transform="translate(0,0)"/>
<path d="" fill="#FFFFFF" transform="translate(0,0)"/>
<path d="" fill="#FFFFFF" transform="translate(0,0)"/>
<path d="" fill="#FFFFFF" transform="translate(0,0)"/>
<path d="" fill="#FFFFFF" transform="translate(0,0)"/>
<path d="" fill="#FFFFFF" transform="translate(0,0)"/>
<path d="" fill="#FFFFFF" transform="translate(0,0)"/>
<path d="" fill="#FFFFFF" transform="translate(0,0)"/>
<path d="" fill="#FFFFFF" transform="translate(0,0)"/>
<path d="" fill="#FFFFFF" transform="translate(0,0)"/>
<path d="" fill="#FFFFFF" transform="translate(0,0)"/>
<path d="" fill="#FFFFFF" transform="translate(0,0)"/>
<path d="" fill="#FFFFFF" transform="translate(0,0)"/>
<path d="" fill="#FFFFFF" transform="translate(0,0)"/>
<path d="" fill="#FFFFFF" transform="translate(0,0)"/>
<path d="" fill="#FFFFFF" transform="translate(0,0)"/>
<path d="" fill="#FFFFFF" transform="translate(0,0)"/>
<path d="" fill="#FFFFFF" transform="translate(0,0)"/>
<path d="" fill="#FFFFFF" transform="translate(0,0)"/>
<path d="" fill="#FFFFFF" transform="translate(0,0)"/>
<path d="" fill="#FFFFFF" transform="translate(0,0)"/>
<path d="" fill="#FFFFFF" transform="translate(0,0)"/>
<path d="" fill="#FFFFFF" transform="translate(0,0)"/>
<path d="" fill="#FFFFFF" transform="translate(0,0)"/>
<path d="" fill="#FFFFFF" transform="translate(0,0)"/>
<path d="" fill="#FFFFFF" transform="translate(0,0)"/>
<path d="" fill="#FFFFFF" transform="translate(0,0)"/>
<path d="" fill="#FFFFFF" transform="translate(0,0)"/>
<path d="" fill="#FFFFFF" transform="translate(0,0)"/>
<path d="" fill="#FFFFFF" transform="translate(0,0)"/>
<path d="" fill="#FFFFFF" transform="translate(0,0)"/>
<path d="" fill="#FFFFFF" transform="translate(0,0)"/>
<path d="" fill="#FFFFFF" transform="translate(0,0)"/>
<path d="" fill="#FFFFFF" transform="translate(0,0)"/>
<path d="" fill="#FFFFFF" transform="translate(0,0)"/>
<path d="" fill="#FFFFFF" transform="translate(0,0)"/>
<path d="" fill="#FFFFFF" transform="translate(0,0)"/>
<path d="" fill="#FEFFFF" transform="translate(0,0)"/>
<path d="" fill="#FFFFFF" transform="translate(0,0)"/>
<path d="" fill="#FFFFFF" transform="translate(0,0)"/>
<path d="" fill="#FFFFFF" transform="translate(0,0)"/>
<path d="" fill="#FFFFFF" transform="translate(0,0)"/>
<path d="" fill="#FFFFFF" transform="translate(0,0)"/>
<path d="" fill="#FFFFFF" transform="translate(0,0)"/>
<path d="" fill="#FFFFFF" transform="translate(0,0)"/>
<path d="" fill="#FFFFFF" transform="translate(0,0)"/>
<path d="" fill="#FFFFFF" transform="translate(0,0)"/>
</svg>
